<?xml version="1.0" encoding="UTF-8" standalone="no"?><!DOCTYPE svg PUBLIC "-//W3C//DTD SVG 1.1//EN" "http://www.w3.org/Graphics/SVG/1.1/DTD/svg11.dtd"><svg width="100%" height="100%" viewBox="0 0 846 847" version="1.1" xmlns="http://www.w3.org/2000/svg" xmlns:xlink="http://www.w3.org/1999/xlink" xml:space="preserve" xmlns:serif="http://www.serif.com/" style="fill-rule:evenodd;clip-rule:evenodd;stroke-linejoin:round;stroke-miterlimit:2;"><g><circle cx="423.001" cy="423.352" r="422.772" style="fill:#fbfbfb;"/><path d="M591.141,142.003c48.216,8.366 82.484,43.267 76.477,77.891c-6.007,34.623 -50.029,55.941 -98.246,47.576c-48.216,-8.366 -82.484,-43.267 -76.477,-77.891c6.007,-34.623 50.03,-55.941 98.246,-47.576Z"/><path d="M581.498,297.643c72.164,3.619 128.838,44.733 126.479,91.755c-2.358,47.022 -62.861,82.26 -135.025,78.641c-72.164,-3.62 -128.838,-44.734 -126.479,-91.755c2.358,-47.022 62.861,-82.26 135.025,-78.641Z"/><path d="M395.743,455.844c22.823,50.223 43.047,103.061 94.693,130.787c55.788,29.935 112.396,31.289 169.822,4.061c24.634,-11.7 48.496,-32.036 71.587,-61.006c28.76,-36.034 37.865,-76.876 39.314,-122.526c0.063,-1.525 -0.375,-5.021 1.325,-5.197c0.502,-0.052 4.869,0.702 6.565,1.761c1.412,0.882 2.379,2.549 2.505,3.203c8.379,43.782 4.441,87.082 -11.813,129.9c-32.131,84.531 -89.59,151.232 -170.248,193.661c-105.75,55.685 -229.833,60.446 -338.654,13.35c-90.061,-38.929 -166.231,-121.266 -189.006,-216.626c-24.052,-100.541 34.399,-191.56 142.133,-195.621c82.596,-3.128 148.937,51.997 181.777,124.253Z" style="fill-rule:nonzero;"/></g></svg>